The.Final.Countdown.1980.BluRay.720p.x264.RoSubbed-TF


:info:


GENRE.....................: Sci-Fi | War
RELEASE SIZE..............: 4.4GB
SOURCE....................: Blu-ray.REMUX.H264.1080P.TrueHD71.DIY
RUNTIME...................: 1h:42m:37s
Subtitle..................: Ro
IDMb......................: http://www.imdb.com/title/tt0080736/

Movie name                               : The.Final.Countdown.1980.BluRay.720p.x264.RoSubbed-TF
Format                                   : Matroska
Format version                           : Version 2
File size                                : 4.37 GiB
Duration                                 : 1h 42mn
Overall bit rate                         : 6 101 Kbps


:video:


ID                                       : 1
Format                                   : AVC
Format/Info                              : Advanced Video Codec
Format profile                           : High@L4.1
Format settings, CABAC                   : Yes
Format settings, ReFrames                : 12 frames
Codec ID                                 : V_MPEG4/ISO/AVC
Duration                                 : 1h 42mn
Bit rate                                 : 5 459 Kbps
Width                                    : 1 280 pixels
Height                                   : 544 pixels
Display aspect ratio                     : 2.35:1
Frame rate mode                          : Constant
Frame rate                               : 23.976 fps
Color space                              : YUV
Chroma subsampling                       : 4:2:0
Bit depth                                : 8 bits
Scan type                                : Progressive
Bits/(Pixel*Frame)                       : 0.327
Stream size                              : 3.83 GiB (88%)
Title                                    : x264 L4_1@5459Kbps
Writing library                          : x264 core 122 r2184 5c85e0a
Language                                 : English
Default                                  : No
Forced                                   : No


:audio:


ID                                       : 2
Format                                   : AC-3
Format/Info                              : Audio Coding 3
Mode extension                           : CM (complete main)
Format settings, Endianness              : Big
Codec ID                                 : A_AC3
Duration                                 : 1h 42mn
Bit rate mode                            : Constant
Bit rate                                 : 640 Kbps
Channel(s)                               : 6 channels
Channel positions                        : Front: L C R, Side: L R, LFE
Sampling rate                            : 48.0 KHz
Bit depth                                : 16 bits
Compression mode                         : Lossy
Stream size                              : 470 MiB (10%)
Title                                    : English AC3@640Kbps
Language                                 : English
Default                                  : Yes
Forced                                   : No


:cast:



Director : Don Taylor
Writers  : Thomas Hunter (story), Peter Powell (story)
Stars    : Kirk Douglas, Martin Sheen and Katharine Ross 


:plot:


Un modern portavion (USS Nimitz) intra intr-o furtuna foarte ciudata pe mare, care ii arunca inapoi in timp, in anul 1941 langa Pearl Harbour. Dispunand de o tehnica mai mult decat avansata fata de anul 1941, vor schimba ei oare istoria salvand flota americana de atacul japonez? 